<?xml version="1.0" encoding="UTF-8"?>
<svg xmlns="http://www.w3.org/2000/svg" xmlns:xlink="http://www.w3.org/1999/xlink" width="1080" height="239" viewBox="0 0 269.94 59.72">
<defs>
<clipPath id="clip-0">
<path clip-rule="nonzero" d="M 256 20 L 269.941406 20 L 269.941406 39 L 256 39 Z M 256 20 "/>
</clipPath>
<clipPath id="clip-1">
<path clip-rule="nonzero" d="M 0 0 L 60 0 L 60 59.71875 L 0 59.71875 Z M 0 0 "/>
</clipPath>
</defs>
<path fill-rule="evenodd" fill="rgb(100%, 100%, 100%)" fill-opacity="1" d="M 74.179688 34.140625 L 77.359375 34.140625 C 78.355469 34.140625 79.011719 34.054688 79.328125 33.878906 C 79.617188 33.710938 79.804688 33.496094 79.890625 33.222656 C 79.945312 33.066406 79.96875 32.816406 79.96875 32.476562 C 79.96875 31.882812 79.90625 31.472656 79.773438 31.246094 C 79.582031 30.90625 79.199219 30.722656 78.632812 30.695312 C 78.472656 30.6875 78.15625 30.675781 77.675781 30.65625 L 74.179688 30.65625 Z M 74.179688 27.335938 L 77.21875 27.335938 C 78.039062 27.316406 78.535156 27.300781 78.695312 27.28125 C 78.859375 27.265625 79.007812 27.210938 79.148438 27.125 C 79.519531 26.894531 79.703125 26.386719 79.703125 25.59375 C 79.703125 24.847656 79.496094 24.386719 79.082031 24.210938 C 78.90625 24.132812 78.5625 24.09375 78.054688 24.09375 L 74.179688 24.09375 Z M 69.382812 38.050781 L 69.382812 20.179688 L 79.101562 20.179688 C 80.707031 20.179688 81.886719 20.390625 82.636719 20.8125 C 83.84375 21.484375 84.445312 22.855469 84.445312 24.925781 C 84.445312 25.894531 84.332031 26.65625 84.105469 27.207031 C 83.859375 27.835938 83.335938 28.324219 82.53125 28.675781 C 82.253906 28.804688 81.898438 28.898438 81.46875 28.949219 L 81.46875 29.042969 C 82.332031 29.113281 82.988281 29.296875 83.429688 29.589844 C 83.9375 29.921875 84.285156 30.375 84.476562 30.953125 C 84.652344 31.464844 84.738281 32.222656 84.738281 33.226562 C 84.738281 34.34375 84.621094 35.183594 84.386719 35.75 C 84.039062 36.59375 83.476562 37.191406 82.699219 37.542969 C 81.941406 37.882812 80.773438 38.050781 79.191406 38.050781 L 69.382812 38.050781 "/>
<path fill-rule="evenodd" fill="rgb(100%, 100%, 100%)" fill-opacity="1" d="M 99.328125 31.515625 L 97.078125 23.746094 L 94.890625 31.515625 Z M 100.28125 34.972656 L 93.855469 34.972656 L 92.992188 38.050781 L 88.019531 38.050781 L 93.386719 20.179688 L 100.636719 20.179688 L 106.066406 38.050781 L 101.199219 38.050781 L 100.28125 34.972656 "/>
<path fill-rule="evenodd" fill="rgb(100%, 100%, 100%)" fill-opacity="1" d="M 120.414062 20.179688 L 125.210938 20.179688 L 125.210938 31.453125 C 125.210938 31.621094 125.175781 32.21875 125.105469 33.246094 C 125.035156 34.269531 124.855469 35.070312 124.570312 35.652344 C 124.28125 36.230469 123.804688 36.746094 123.144531 37.191406 C 122.4375 37.660156 121.523438 37.957031 120.40625 38.082031 C 119.71875 38.152344 118.929688 38.1875 118.039062 38.1875 C 116.375 38.1875 115.117188 38.132812 114.269531 38.027344 C 113.425781 37.921875 112.707031 37.734375 112.113281 37.464844 C 110.933594 36.914062 110.195312 36.039062 109.886719 34.832031 C 109.75 34.257812 109.675781 33.261719 109.664062 31.847656 L 109.664062 20.179688 L 114.464844 20.179688 L 114.464844 31.847656 C 114.464844 32.523438 114.542969 33.011719 114.699219 33.308594 C 114.882812 33.667969 115.332031 33.902344 116.050781 34.007812 C 116.398438 34.058594 116.953125 34.085938 117.714844 34.085938 C 118.585938 34.085938 119.214844 34.003906 119.601562 33.835938 C 120.046875 33.644531 120.304688 33.164062 120.375 32.402344 C 120.398438 32.171875 120.414062 31.898438 120.414062 31.582031 L 120.414062 20.179688 "/>
<path fill-rule="evenodd" fill="rgb(100%, 100%, 100%)" fill-opacity="1" d="M 135.558594 24.09375 L 135.558594 27.335938 L 143.195312 27.335938 L 143.195312 30.65625 L 135.558594 30.65625 L 135.558594 34.140625 L 143.863281 34.140625 L 143.863281 38.050781 L 130.761719 38.050781 L 130.761719 20.179688 L 143.703125 20.179688 L 143.703125 24.09375 L 135.558594 24.09375 "/>
<path fill-rule="evenodd" fill="rgb(100%, 100%, 100%)" fill-opacity="1" d="M 153.777344 29.238281 L 157.578125 29.238281 C 158.535156 29.238281 159.105469 28.964844 159.289062 28.425781 C 159.402344 28.074219 159.457031 27.382812 159.457031 26.351562 C 159.457031 25.375 159.238281 24.757812 158.792969 24.503906 C 158.539062 24.355469 158.0625 24.28125 157.355469 24.28125 L 153.777344 24.28125 Z M 148.980469 38.050781 L 148.980469 20.179688 L 158 20.179688 C 159.871094 20.179688 161.199219 20.363281 161.984375 20.730469 C 163.011719 21.210938 163.703125 21.992188 164.0625 23.074219 C 164.261719 23.6875 164.363281 24.542969 164.363281 25.640625 C 164.363281 27.082031 164.265625 28.132812 164.074219 28.796875 C 163.777344 29.785156 163.113281 30.449219 162.085938 30.789062 C 161.859375 30.867188 161.492188 30.96875 160.984375 31.089844 L 160.984375 31.285156 C 163.210938 31.398438 164.289062 32.570312 164.230469 34.800781 L 164.230469 38.050781 L 159.351562 38.050781 L 159.351562 35.671875 C 159.394531 34.054688 158.726562 33.265625 157.34375 33.308594 L 153.777344 33.308594 L 153.777344 38.050781 L 148.980469 38.050781 "/>
<path fill-rule="evenodd" fill="rgb(100%, 100%, 100%)" fill-opacity="1" d="M 183.769531 28.863281 L 191.542969 28.863281 C 191.578125 29.460938 191.59375 30.4375 191.59375 31.789062 C 191.59375 32.929688 191.5625 33.773438 191.496094 34.320312 C 191.429688 34.871094 191.300781 35.351562 191.109375 35.769531 C 190.570312 36.980469 189.582031 37.71875 188.152344 37.992188 C 187.386719 38.136719 185.96875 38.210938 183.898438 38.210938 C 182.222656 38.210938 180.976562 38.121094 180.15625 37.9375 C 179.335938 37.753906 178.636719 37.410156 178.0625 36.90625 C 177.144531 36.101562 176.613281 34.90625 176.464844 33.320312 C 176.402344 32.710938 176.371094 31.96875 176.371094 31.097656 C 176.371094 28.640625 176.386719 27.058594 176.410156 26.351562 C 176.5 23.867188 177.101562 22.15625 178.214844 21.222656 C 178.992188 20.570312 180 20.199219 181.238281 20.113281 C 182.03125 20.050781 183.089844 20.019531 184.414062 20.019531 C 185.765625 20.019531 186.746094 20.042969 187.351562 20.09375 C 187.957031 20.140625 188.480469 20.238281 188.925781 20.386719 C 190.417969 20.882812 191.265625 21.992188 191.464844 23.707031 C 191.507812 24.082031 191.535156 24.667969 191.542969 25.460938 L 188.808594 25.460938 C 188.773438 24.390625 188.636719 23.652344 188.402344 23.253906 C 188.148438 22.816406 187.582031 22.546875 186.703125 22.441406 C 186.144531 22.382812 185.183594 22.351562 183.8125 22.351562 C 182.453125 22.351562 181.457031 22.449219 180.820312 22.640625 C 180.054688 22.875 179.554688 23.488281 179.328125 24.484375 C 179.226562 24.960938 179.160156 26.460938 179.132812 28.980469 C 179.148438 31.035156 179.167969 32.242188 179.1875 32.601562 C 179.230469 33.488281 179.375 34.164062 179.621094 34.625 C 179.871094 35.089844 180.257812 35.402344 180.777344 35.566406 C 181.464844 35.777344 182.691406 35.882812 184.460938 35.882812 C 185.574219 35.882812 186.414062 35.824219 186.988281 35.710938 C 187.558594 35.597656 187.964844 35.402344 188.207031 35.125 C 188.625 34.65625 188.835938 33.582031 188.835938 31.90625 C 188.835938 31.707031 188.835938 31.40625 188.832031 31.003906 L 183.769531 31.003906 L 183.769531 28.863281 "/>
<path fill-rule="evenodd" fill="rgb(100%, 100%, 100%)" fill-opacity="1" d="M 199.441406 29.15625 L 204.730469 29.15625 C 205.882812 29.15625 206.710938 28.976562 207.214844 28.617188 C 207.621094 28.320312 207.882812 27.878906 207.992188 27.300781 C 208.046875 27.046875 208.070312 26.617188 208.070312 26.011719 C 208.070312 24.898438 208.007812 24.148438 207.878906 23.761719 C 207.660156 23.113281 207.132812 22.722656 206.292969 22.589844 C 205.972656 22.539062 205.605469 22.511719 205.1875 22.511719 L 199.441406 22.511719 Z M 196.683594 38.050781 L 196.683594 20.179688 L 205.34375 20.179688 C 206.972656 20.179688 208.199219 20.421875 209.015625 20.902344 C 209.808594 21.363281 210.339844 22.074219 210.609375 23.035156 C 210.777344 23.613281 210.859375 24.398438 210.859375 25.394531 C 210.859375 26.625 210.761719 27.546875 210.570312 28.167969 C 210.285156 29.058594 209.722656 29.664062 208.890625 29.988281 C 208.617188 30.101562 208.226562 30.203125 207.714844 30.289062 L 207.714844 30.378906 C 208.699219 30.449219 209.433594 30.769531 209.917969 31.34375 C 210.402344 31.914062 210.644531 32.742188 210.644531 33.832031 L 210.644531 38.050781 L 207.882812 38.050781 L 207.882812 34.410156 C 207.894531 33.300781 207.644531 32.523438 207.136719 32.078125 C 206.605469 31.65625 205.847656 31.460938 204.859375 31.488281 L 199.441406 31.488281 L 199.441406 38.050781 L 196.683594 38.050781 "/>
<path fill-rule="evenodd" fill="rgb(100%, 100%, 100%)" fill-opacity="1" d="M 227.898438 31.570312 L 227.898438 26.570312 C 227.898438 24.898438 227.617188 23.765625 227.050781 23.175781 C 226.65625 22.757812 226.066406 22.519531 225.28125 22.457031 C 224.664062 22.40625 223.867188 22.378906 222.898438 22.378906 C 221.828125 22.378906 221.050781 22.402344 220.570312 22.449219 C 220.089844 22.5 219.691406 22.585938 219.367188 22.71875 C 218.722656 22.996094 218.289062 23.582031 218.070312 24.46875 C 217.921875 25.046875 217.847656 25.757812 217.847656 26.613281 L 217.847656 29.125 C 217.847656 31.082031 217.867188 32.269531 217.902344 32.679688 C 217.980469 33.507812 218.128906 34.136719 218.351562 34.574219 C 218.574219 35.007812 218.90625 35.320312 219.339844 35.5 C 219.734375 35.667969 220.277344 35.773438 220.976562 35.816406 C 221.507812 35.84375 222.167969 35.855469 222.953125 35.855469 C 224.515625 35.855469 225.535156 35.78125 226.015625 35.632812 C 226.46875 35.503906 226.820312 35.296875 227.066406 35.011719 C 227.316406 34.730469 227.511719 34.3125 227.648438 33.765625 C 227.816406 33.148438 227.898438 32.414062 227.898438 31.570312 Z M 223.136719 20.019531 C 224.351562 20.019531 225.300781 20.0625 225.988281 20.152344 C 226.671875 20.238281 227.269531 20.390625 227.777344 20.609375 C 229.296875 21.261719 230.21875 22.652344 230.542969 24.78125 C 230.640625 25.433594 230.6875 26.75 230.6875 28.730469 C 230.6875 31.121094 230.632812 32.675781 230.527344 33.398438 C 230.371094 34.515625 230.097656 35.390625 229.703125 36.027344 C 229.308594 36.664062 228.738281 37.160156 227.984375 37.519531 C 227.226562 37.875 226.261719 38.089844 225.089844 38.160156 C 224.425781 38.195312 223.644531 38.210938 222.742188 38.210938 C 221.355469 38.210938 220.296875 38.160156 219.570312 38.054688 C 218.847656 37.949219 218.207031 37.757812 217.65625 37.480469 C 216.609375 36.949219 215.898438 36.089844 215.519531 34.902344 C 215.269531 34.085938 215.125 33.121094 215.089844 32.011719 C 215.070312 31.296875 215.0625 30.367188 215.0625 29.214844 C 215.0625 27.015625 215.113281 25.566406 215.21875 24.859375 C 215.375 23.742188 215.667969 22.851562 216.097656 22.183594 C 216.527344 21.519531 217.136719 21.003906 217.933594 20.648438 C 218.621094 20.34375 219.511719 20.15625 220.59375 20.085938 C 221.292969 20.042969 222.140625 20.019531 223.136719 20.019531 "/>
<path fill-rule="evenodd" fill="rgb(100%, 100%, 100%)" fill-opacity="1" d="M 247.398438 20.179688 L 250.160156 20.179688 L 250.160156 32.371094 C 250.160156 33.945312 249.996094 35.089844 249.664062 35.792969 C 249.175781 36.847656 248.273438 37.554688 246.957031 37.910156 C 246.234375 38.113281 244.945312 38.210938 243.085938 38.210938 C 241.710938 38.210938 240.683594 38.175781 240.007812 38.101562 C 239.332031 38.027344 238.75 37.894531 238.265625 37.703125 C 237.191406 37.265625 236.46875 36.585938 236.09375 35.664062 C 235.804688 34.976562 235.660156 33.914062 235.660156 32.472656 L 235.660156 20.179688 L 238.421875 20.179688 L 238.421875 32.472656 C 238.421875 33.621094 238.535156 34.394531 238.761719 34.785156 C 239.039062 35.253906 239.59375 35.566406 240.429688 35.722656 C 240.890625 35.8125 241.671875 35.855469 242.773438 35.855469 C 244.425781 35.855469 245.550781 35.75 246.148438 35.542969 C 246.84375 35.296875 247.246094 34.628906 247.359375 33.53125 C 247.386719 33.242188 247.398438 32.871094 247.398438 32.410156 L 247.398438 20.179688 "/>
<g clip-path="url(#clip-0)">
<path fill-rule="evenodd" fill="rgb(100%, 100%, 100%)" fill-opacity="1" d="M 258.84375 29.316406 L 263.148438 29.316406 C 264.550781 29.316406 265.484375 29.222656 265.953125 29.027344 C 266.5 28.8125 266.855469 28.363281 267.023438 27.691406 C 267.109375 27.359375 267.152344 26.847656 267.152344 26.15625 C 267.152344 24.996094 267.074219 24.171875 266.917969 23.691406 C 266.683594 22.976562 266.039062 22.582031 264.988281 22.511719 C 264.78125 22.503906 264.328125 22.496094 263.636719 22.484375 L 258.84375 22.484375 Z M 256.085938 38.050781 L 256.085938 20.179688 L 263.449219 20.179688 C 264.375 20.179688 265.015625 20.191406 265.375 20.207031 C 266.332031 20.25 267.097656 20.402344 267.671875 20.664062 C 268.242188 20.925781 268.714844 21.339844 269.089844 21.90625 C 269.65625 22.769531 269.941406 24.109375 269.941406 25.921875 C 269.941406 27.605469 269.726562 28.847656 269.300781 29.648438 C 268.777344 30.640625 267.914062 31.265625 266.722656 31.519531 C 266.371094 31.589844 265.265625 31.640625 263.398438 31.675781 L 258.84375 31.675781 L 258.84375 38.050781 L 256.085938 38.050781 "/>
</g>
<g clip-path="url(#clip-1)">
<path fill-rule="nonzero" fill="rgb(96.186829%, 49.583435%, 7.623291%)" fill-opacity="1" d="M 0 17.792969 L 41.925781 0.00390625 L 59.734375 41.929688 L 17.808594 59.71875 L 0 17.792969 "/>
</g>
<path fill-rule="evenodd" fill="rgb(100%, 100%, 100%)" fill-opacity="1" d="M 30.730469 15.652344 C 33.207031 15.652344 35.28125 15.707031 36.941406 15.816406 C 38.605469 15.925781 39.796875 16.082031 40.515625 16.289062 C 42.40625 16.8125 43.832031 17.570312 44.792969 18.558594 C 45.757812 19.546875 46.238281 20.734375 46.238281 22.117188 C 46.238281 23.53125 45.796875 24.738281 44.910156 25.746094 C 44.023438 26.753906 42.710938 27.539062 40.964844 28.105469 C 43.066406 28.644531 44.714844 29.527344 45.90625 30.761719 C 47.101562 31.992188 47.699219 33.410156 47.699219 35.015625 C 47.699219 36.53125 47.296875 37.824219 46.492188 38.894531 C 45.691406 39.96875 44.476562 40.832031 42.84375 41.484375 C 41.90625 41.859375 40.589844 42.132812 38.898438 42.3125 C 37.203125 42.492188 35.050781 42.582031 32.445312 42.582031 L 17.707031 42.582031 L 16.472656 41.445312 C 16.578125 39.171875 16.65625 37.007812 16.707031 34.957031 C 16.757812 32.902344 16.785156 30.917969 16.785156 29.007812 C 16.785156 27.09375 16.757812 25.136719 16.707031 23.136719 C 16.65625 21.132812 16.578125 19.0625 16.472656 16.917969 L 17.78125 15.652344 Z M 29.320312 18.453125 L 29.242188 27.757812 C 30.582031 27.601562 31.644531 27.109375 32.433594 26.273438 C 33.226562 25.4375 33.621094 24.390625 33.621094 23.132812 C 33.621094 21.886719 33.230469 20.84375 32.453125 20.003906 C 31.675781 19.160156 30.632812 18.644531 29.320312 18.453125 Z M 29.242188 30.320312 L 29.320312 39.785156 C 30.980469 39.628906 32.304688 39.117188 33.289062 38.246094 C 34.273438 37.371094 34.765625 36.296875 34.765625 35.015625 C 34.765625 33.746094 34.257812 32.671875 33.238281 31.800781 C 32.222656 30.929688 30.890625 30.4375 29.242188 30.320312 "/>
</svg>
