<?xml version="1.0" encoding="UTF-8"?>
<svg xmlns="http://www.w3.org/2000/svg" xmlns:xlink="http://www.w3.org/1999/xlink" width="512" height="512" viewBox="0 0 180.48 180.42">
<path fill-rule="nonzero" fill="rgb(96.186829%, 49.583435%, 7.623291%)" fill-opacity="1" d="M 0 53.746094 L 126.671875 0.00390625 L 180.476562 126.679688 L 53.804688 180.421875 L 0 53.746094 "/>
<path fill-rule="evenodd" fill="rgb(100%, 100%, 100%)" fill-opacity="1" d="M 92.921875 47.1875 C 100.414062 47.1875 106.671875 47.351562 111.695312 47.679688 C 116.722656 48.011719 120.320312 48.484375 122.492188 49.105469 C 128.199219 50.695312 132.503906 52.984375 135.414062 55.96875 C 138.328125 58.949219 139.78125 62.535156 139.78125 66.722656 C 139.78125 70.988281 138.445312 74.640625 135.769531 77.683594 C 133.09375 80.726562 129.117188 83.101562 123.84375 84.808594 C 130.199219 86.4375 135.179688 89.113281 138.78125 92.835938 C 142.386719 96.558594 144.191406 100.84375 144.191406 105.691406 C 144.191406 110.265625 142.976562 114.175781 140.554688 117.414062 C 138.128906 120.652344 134.453125 123.257812 129.527344 125.234375 C 126.695312 126.359375 122.71875 127.195312 117.601562 127.738281 C 112.480469 128.28125 105.980469 128.550781 98.105469 128.550781 L 53.578125 128.550781 L 49.859375 125.109375 C 50.167969 118.246094 50.402344 111.714844 50.558594 105.507812 C 50.714844 99.304688 50.792969 93.3125 50.792969 87.535156 C 50.792969 81.757812 50.714844 75.84375 50.558594 69.796875 C 50.402344 63.746094 50.167969 57.484375 49.859375 51.011719 L 53.808594 47.1875 Z M 88.667969 55.644531 L 88.4375 83.757812 C 92.476562 83.292969 95.691406 81.800781 98.078125 79.277344 C 100.46875 76.753906 101.660156 73.59375 101.660156 69.789062 C 101.660156 66.027344 100.484375 62.871094 98.136719 60.332031 C 95.785156 57.789062 92.632812 56.226562 88.667969 55.644531 Z M 88.4375 91.503906 L 88.667969 120.09375 C 93.6875 119.628906 97.679688 118.078125 100.65625 115.445312 C 103.628906 112.8125 105.113281 109.558594 105.113281 105.683594 C 105.113281 101.847656 103.578125 98.613281 100.507812 95.976562 C 97.4375 93.34375 93.414062 91.851562 88.4375 91.503906 "/>
</svg>
